<?xml version="1.0" encoding="utf-8"?>
<!-- Generator: Adobe Illustrator 21.1.0, SVG Export Plug-In . SVG Version: 6.00 Build 0)  -->
<svg version="1.1" id="Layer_1" xmlns="http://www.w3.org/2000/svg" xmlns:xlink="http://www.w3.org/1999/xlink" x="0px" y="0px"
	 viewBox="0 0 32 32" style="enable-background:new 0 0 32 32;" xml:space="preserve">
<style type="text/css">
	.st0{fill:#D3D3D3;}
	.st1{fill:#FFFFFF;}
</style>
<path class="st0" d="M12.8,24.1c0.6-0.1,1.1-0.2,1.6-0.4c0.6-0.2,1-0.4,1.5-0.6c0.5-0.2,0.9-0.5,1.4-0.7c0.5-0.3,0.8-0.6,1.3-0.9
	c0.4-0.4,0.8-0.8,1.1-1.1c0.4-0.4,0.6-0.6,1-1.2c0.3-0.5,0.6-0.9,0.8-1.4s0.5-0.9,0.7-1.5c0.2-0.5,0.3-1.2,0.5-1.7
	c0.2-0.6,0.1-0.8,0.3-1.5c0-0.3,0-0.7,0-0.9c0-0.3,0-0.6,0-0.8c-0.1,1.9-0.5,3.7-1.5,5.4c-0.6,0.9-1.3,1.8-2.2,2.5
	c-1.7,1.5-4,2.2-6.4,2.2c-0.9,0-1.9-0.1-2.8-0.4C8,20.5,6.1,18.8,5,16.5c-1.2-2.6-1.4-5.7-0.3-8.3c0.7-1.9,2.2-3.6,3.8-4.7V3.4
	c-3,1.4-5.1,4.2-5.6,7.5c-0.6,3.1,0.3,6.4,2.2,9.2c1.5,2.1,4.1,3.8,6.3,4.6c0.1,0,0.1-0.3,0.2-0.3C12.2,24.4,12.3,24.2,12.8,24.1"/>
<path class="st1" d="M29,7.8c0.2,0.8,0.3,1.8,0.3,2.6c0,0.4,0,0.7,0,1C28,7.2,24,4,19.3,4c-2.4,0-4.6,0.7-6.4,2.2
	C12.6,6.5,12.3,6.7,12,7c-0.4,0.3-0.8,1-0.8,1s0.1-1.6,0.9-3.2c0.3-0.6,0.7-1.1,1-1.6C13.7,2.6,14.3,2,15,1.5s1.5-0.8,2.3-1.1
	S19,0,20,0C24.4,0,28,3.2,29,7.8"/>
<path class="st1" d="M11.3,7.5L11.3,7.5L11.3,7.5"/>
<path class="st1" d="M11.5,6.5L11.5,6.5L11.5,6.5"/>
<path class="st1" d="M29.2,11.6c0-0.2,0-0.4,0-0.6C29.2,11.2,29.2,11.3,29.2,11.6c-1.3-4.4-5.2-7.5-10-7.5c-2.4,0-4.6,0.8-6.4,2.2
	c1-0.7,2.3-1.2,3.7-1.2c1.2,0,2.4,0.4,3.5,1c1.5,0.9,2.6,2.6,2.9,4.4c0.1,0.6,0.1,1.2,0.1,1.8c0,0.3,0,0.6,0,0.8
	c-0.1,0.6-0.1,1.1-0.3,1.7c-0.1,0.6-0.3,1-0.5,1.6c-0.2,0.5-0.4,1-0.7,1.5c-0.3,0.5-0.6,0.9-0.8,1.4c-0.3,0.5-0.7,0.8-1,1.2
	c-0.4,0.4-0.7,0.7-1.1,1.1s-0.8,0.7-1.3,0.9c-0.5,0.3-0.9,0.6-1.4,0.7c-0.5,0.2-1,0.5-1.5,0.6c-0.6,0.2-1,0.3-1.6,0.4
	c-0.6,0.1-1.1,0.2-1.7,0.2c-0.1,0,0.2,0.1,0.1,0.1c0.6,0.2,0.5,0.1,1.1,0.2c0.7,0.1,1.5,0.2,2.2,0.2c0.1,0,0.2,0,0.3,0
	C22.4,24.9,28.7,19,29.2,11.6C29.2,11.5,29.2,11.6,29.2,11.6"/>
<path class="st1" d="M16.4,7.9c-2.2,0.1-4.1,1.2-5.2,3c0,0,0,0,0,0.1v21c0,0.1,0.1,0.1,0.1,0.1c2.2-0.1,4.1-1.2,5.2-3c0,0,0,0,0-0.1
	L16.4,7.9C16.5,8,16.5,7.9,16.4,7.9"/>
</svg>
